<svg xmlns="http://www.w3.org/2000/svg" viewBox="0 0 1024 1024" width="512" height="512"><style>tspan { white-space:pre }.shp0 { fill: #34495e } .shp1 { fill: #9c88ff } .shp2 { fill: #7255ff } </style><g ><path class="shp0" d="M402.34 616.51L171.18 789.88L304.54 523.15L402.34 616.51Z" /><path class="shp1" d="M305.42 522.88L305.42 522.88L171.18 789.88L77.82 745.42L305.42 522.88Z" /><path class="shp2" d="M175.62 649.83C175.9 649.86 78.66 745.85 78.66 745.85L175.67 383.01C175.67 383.01 175.34 649.8 175.62 649.83Z" /><path class="shp0" d="M78.19 748.13L82.27 300.88L175.97 383.1L78.19 748.13Z" /></g><g ><path class="shp0" d="M942.04 907.71L945.03 201.07L808.06 805.06L942.04 907.71Z" /><path class="shp2" d="M719.77 734.34L809.91 806.32L944.91 204.94L719.79 377.35C719.79 377.35 720.05 734.58 719.77 734.34Z" /><path class="shp1" d="M944.97 203.1L944.94 205.91L488.61 560.97L724.22 116.43L944.97 203.1Z" /><path class="shp0" d="M488.89 561.03L373.03 463.17L724.71 116.29L488.89 561.03Z" /></g></svg>