<svg width="0" height="0" class="hidden">
  <symbol xmlns="http://www.w3.org/2000/svg" viewBox="0 0 446.297 446.297" id="css">
    <path d="M381.903 113.195c-.945-28.551-1.468-67.126-1.188-95.697.01-1.274-.193-2.396-.482-3.453.559-6.226-3.098-12.796-11.07-12.588C268.521 4.098 167.906.157 67.269 0 58.895-.016 55.231 7.343 56.26 13.802c-.333 1.122-.566 2.328-.551 3.702 1.519 120.089 5.646 292.639 5.776 412.749 0 2.696.764 4.88 1.988 6.616.736 5.088 4.397 9.587 11.017 9.425 43.498-1.082 87.016-1.777 130.481-3.91 38.74-1.899 87.017.645 124.05-11.994 13.106-4.479 24.832-11.101 34.891-20.683 18.378-17.519 24.654-41.035 26.233-65.815 1.519-23.806-1.285-48.774-1.844-70.706-1.427-56.654-4.535-103.348-6.398-159.991zm-63.678 214.202c-7.084.04-13.924 5.57-10.761 14.065 6.368 17.088 9.277 38.304-.513 54.649-11.837 19.764-32.956 19.226-53.04 21.759-12.283 1.549-25.339.727-37.716 1.077-9.635.269-131.629 3.244-131.629 3.722-.284-115.605-4.108-283.668-5.652-399.266 92.912.401 185.809 3.593 278.721 1.607-.355 94.913 8.059 232.117 8.556 307.128-14.411-4.55-29.31-6.469-44.691-5.438-1.204.077-2.265.352-3.275.697zm9.079 79.019c9.328-15.899 11.659-35.409 6.805-56.559 11.237.437 22.317 2.604 32.813 7.053.041.127.076.264.117.396-3.402 25.06-19.255 40.436-39.735 49.11z"></path>
    <path d="M170.979 241.777c-35.62 2.057-48.495-66.367-12.131-71.066 14.747-1.904 14.935-25.329 0-23.399-66.979 8.653-53.558 121.648 12.131 117.865 14.995-.864 15.079-24.268 0-23.4zm56.512-56.017c-6.479-11.337-4.624-15.247 8.13-18.934 14.462-4.184 8.307-26.763-6.224-22.562-27.611 7.983-35.487 28.442-22.109 53.304 5.456 10.141 12.741 19.177 18.263 29.285 6.584 12.06-3.194 11.856-15.574 13.188-14.84 1.6-14.99 25.019 0 23.398 27.741-2.99 50.667-16.274 36.775-46.425-5.108-11.079-13.223-20.68-19.261-31.254zm62.398 0c-6.479-11.337-4.621-15.247 8.13-18.934 14.462-4.184 8.308-26.763-6.22-22.562-27.614 7.983-35.49 28.442-22.11 53.304 5.454 10.141 12.741 19.177 18.261 29.285 6.586 12.06-3.194 11.856-15.574 13.188-14.838 1.6-14.99 25.019 0 23.398 27.741-2.99 50.668-16.274 36.774-46.425-5.108-11.079-13.223-20.68-19.261-31.254z"></path>
  </symbol>
  <symbol xmlns="http://www.w3.org/2000/svg" viewBox="0 0 129 129" id="d-arrow">
    <path d="M121.3 34.6c-1.6-1.6-4.2-1.6-5.8 0l-51 51.1-51.1-51.1c-1.6-1.6-4.2-1.6-5.8 0-1.6 1.6-1.6 4.2 0 5.8l53.9 53.9c.8.8 1.8 1.2 2.9 1.2 1 0 2.1-.4 2.9-1.2l53.9-53.9c1.7-1.6 1.7-4.2.1-5.8z" fill="#9c88ff"></path>
  </symbol>
  <symbol xmlns="http://www.w3.org/2000/svg" viewBox="0 0 446.296 446.297" id="html">
    <path d="M381.905 113.195c-.939-28.551-1.467-67.126-1.188-95.697.015-1.274-.188-2.396-.482-3.453.559-6.226-3.098-12.796-11.07-12.588C268.529 4.098 167.909.157 67.266 0c-8.371-.016-12.038 7.343-11.004 13.802-.338 1.122-.566 2.328-.551 3.702 1.519 120.089 5.647 292.639 5.779 412.749 0 2.696.764 4.88 1.985 6.616.739 5.088 4.4 9.587 11.014 9.425 43.5-1.082 87.019-1.777 130.484-3.91 38.74-1.899 87.016.645 124.045-11.994 13.106-4.479 24.836-11.101 34.891-20.683 18.382-17.519 24.653-41.035 26.232-65.815 1.519-23.806-1.284-48.774-1.843-70.706-1.426-56.654-4.53-103.348-6.393-159.991zm-63.678 214.202c-7.084.04-13.924 5.57-10.766 14.065 6.368 17.088 9.278 38.304-.508 54.649-11.836 19.764-32.955 19.226-53.039 21.759-12.273 1.549-25.334.727-37.714 1.077-9.636.269-131.629 3.244-131.629 3.722-.287-115.605-4.108-283.668-5.652-399.266 92.915.401 185.805 3.593 278.717 1.607-.351 94.913 8.064 232.117 8.557 307.128-14.411-4.55-29.311-6.469-44.691-5.438-1.203.077-2.269.352-3.275.697zm9.074 79.019c9.334-15.899 11.664-35.409 6.81-56.559 11.237.437 22.318 2.604 32.81 7.053.045.127.076.264.121.396-3.403 25.06-19.261 40.436-39.741 49.11z"></path>
    <path d="M139.939 166.687c-.353 11.784-.65 23.56-.785 35.333-4.786-.041-9.559-.213-14.327-.597-.815-11.477-2.044-22.933-3.613-34.398-1.96-14.31-23.628-8.196-21.678 5.979 3.047 22.224 4.377 44.541 3.765 66.971-.401 14.503 22.086 14.473 22.483 0 .145-5.353.124-10.684.035-16.006 4.449.325 8.904.492 13.36.533.119 7.652.338 15.311.759 22.963.8 14.421 23.29 14.497 22.488 0-1.49-26.929-.81-53.842 0-80.783.438-14.503-22.05-14.462-22.487.005z"></path>
    <path d="M210.312 155.444c-11.125.738-22.208-.036-33.309-.833-14.482-1.033-14.378 21.462 0 22.49.909.068 1.82.125 2.729.188 1.612 21.975 1.841 43.98 1.846 66.021 0 14.503 22.491 14.503 22.491 0-.005-21.733-.229-43.429-1.78-65.097 2.673-.021 5.347-.104 8.023-.279 14.394-.956 14.488-23.447 0-22.49zm74.781-1.16c-3.772-.338-7.703 1.046-10.364 5.065-4.245 6.436-8.221 13.048-12.116 19.698-5.732-6.678-11.466-13.353-16.863-20.312-3.769-4.849-11.979-3.925-15.904 0-1.854 1.856-2.809 3.954-3.09 6.111a12.693 12.693 0 0 0-.208 2.671c.78 24.425.907 48.865 1.668 73.291.446 14.472 22.932 14.513 22.479 0-.437-14.097-.69-28.206-.949-42.315 1.976 2.316 3.956 4.628 5.911 6.959 1.127 1.351 2.604 2.209 4.209 2.724 4.769 2.351 10.888 1.783 14.29-4.167 1.213-2.13 2.457-4.242 3.681-6.37.95 14.389 1.885 28.782 2.844 43.168.96 14.391 23.45 14.482 22.491 0a36729.979 36729.979 0 0 1-5.002-75.784c-.483-7.692-7.13-11.257-13.077-10.739zm70.554 81.527c0-5.596-5.145-11.943-11.243-11.242-3.742.437-7.51.686-11.268.944-1.463-20.208-3.144-40.388-5.81-60.484-1.879-14.16-24.39-14.343-22.49 0 3.199 24.064 4.986 48.244 6.668 72.453.375 5.403 3.777 8.79 7.835 10.146 1.538.838 3.25 1.311 5.078 1.097 6.642-.767 13.34-.894 19.986-1.66 6.09-.712 11.244-4.592 11.244-11.254z"></path>
  </symbol>
  <symbol xmlns="http://www.w3.org/2000/svg" viewBox="0 0 446.296 446.297" id="js">
    <path d="M381.902 113.195c-.944-28.551-1.467-67.126-1.188-95.697.01-1.274-.193-2.396-.482-3.453.553-6.226-3.098-12.796-11.07-12.588C268.521 4.098 167.903.157 67.266 0 58.895-.016 55.228 7.343 56.26 13.802c-.333 1.122-.566 2.328-.551 3.702 1.519 120.089 5.647 292.639 5.776 412.749 0 2.696.764 4.88 1.985 6.616.739 5.088 4.4 9.587 11.019 9.425 43.498-1.082 87.014-1.777 130.479-3.91 38.743-1.899 87.018.645 124.047-11.994 13.106-4.479 24.836-11.101 34.891-20.683 18.377-17.519 24.648-41.035 26.238-65.815 1.518-23.806-1.285-48.774-1.844-70.706-1.431-56.654-4.54-103.348-6.398-159.991zm-63.678 214.202c-7.084.04-13.929 5.57-10.766 14.065 6.368 17.088 9.278 38.304-.508 54.649-11.836 19.764-32.955 19.226-53.039 21.759-12.278 1.549-25.334.727-37.717 1.077-9.635.269-131.628 3.244-131.628 3.722-.287-115.605-4.108-283.668-5.652-399.266 92.917.401 185.808 3.593 278.725 1.607-.355 94.913 8.06 232.117 8.557 307.128-14.411-4.55-29.31-6.469-44.691-5.438-1.214.077-2.286.352-3.281.697zm9.074 79.019c9.334-15.899 11.659-35.409 6.81-56.559 11.237.437 22.318 2.604 32.804 7.053.051.127.082.264.127.396-3.408 25.06-19.256 40.436-39.741 49.11z"></path>
    <path d="M214.125 138.648c-23.97.858-47.936 1.668-71.929 1.732-15.089.041-15.089 23.44 0 23.399 10.135-.025 20.258-.238 30.389-.482 4.293 17.194 7.16 34.713 6.794 52.481-.134 6.495-.7 15.219-5.096 20.459-5.037 5.997-16.841-.716-21.848-3.26-13.421-6.825-25.263 13.36-11.809 20.2 24.298 12.359 50.396 11.745 59.476-17.718 6.941-22.525 1.965-49.83-3.585-72.846 5.873-.19 11.743-.358 17.613-.571 15.041-.53 15.092-23.934-.005-23.394zm50.927 28.58c-2.259-4.687-1.219-8.186-2.803-7.084 6.82-4.763 20.724-1.589 28.143-.695 14.959 1.8 14.792-21.622 0-23.399-15.63-1.876-39.472-4.014-48.338 12.708-7.124 13.431 1.696 29.364 8.587 40.908 8.491 14.226 19.108 27.226 26.304 42.216.59 1.224 1.412 4.265 1.696 5.361-7.276 3.819-22.855-.619-30.203-1.979-14.747-2.732-21.049 19.824-6.221 22.562 15.868 2.939 42.081 9.079 54.649-5.307 10.755-12.314 2.66-29.033-4.276-41.002-8.723-15.04-19.956-28.576-27.538-44.289z"></path>
  </symbol>
  <symbol xmlns="http://www.w3.org/2000/svg" viewBox="0 0 477.175 477.175" id="l-arrow">
    <path d="M145.188 238.575l215.5-215.5c5.3-5.3 5.3-13.8 0-19.1s-13.8-5.3-19.1 0l-225.1 225.1c-5.3 5.3-5.3 13.8 0 19.1l225.1 225c2.6 2.6 6.1 4 9.5 4s6.9-1.3 9.5-4c5.3-5.3 5.3-13.8 0-19.1l-215.4-215.5z"></path>
  </symbol>
  <symbol xmlns="http://www.w3.org/2000/svg" viewBox="0 0 512 512" id="menu">
    <path d="M491.318 235.318H20.682C9.26 235.318 0 244.577 0 256s9.26 20.682 20.682 20.682h470.636c11.423 0 20.682-9.259 20.682-20.682 0-11.422-9.259-20.682-20.682-20.682zm0-156.879H20.682C9.26 78.439 0 87.699 0 99.121c0 11.422 9.26 20.682 20.682 20.682h470.636c11.423 0 20.682-9.26 20.682-20.682 0-11.422-9.259-20.682-20.682-20.682zm0 313.758H20.682C9.26 392.197 0 401.456 0 412.879s9.26 20.682 20.682 20.682h470.636c11.423 0 20.682-9.259 20.682-20.682s-9.259-20.682-20.682-20.682z"></path>
  </symbol>
  <symbol xmlns="http://www.w3.org/2000/svg" viewBox="0 0 129 129" id="r-arrow">
    <path d="M40.4 121.3c-.8.8-1.8 1.2-2.9 1.2s-2.1-.4-2.9-1.2c-1.6-1.6-1.6-4.2 0-5.8l51-51-51-51c-1.6-1.6-1.6-4.2 0-5.8 1.6-1.6 4.2-1.6 5.8 0l53.9 53.9c1.6 1.6 1.6 4.2 0 5.8l-53.9 53.9z"></path>
  </symbol>
</svg>